<svg id="Capa_1" enable-background="new 0 0 512.563 512.563" height="512" viewBox="0 0 512.563 512.563" width="512" xmlns="http://www.w3.org/2000/svg"><g><g><g><path d="m120.941 82.261c-28.65 0-51.88 23.23-51.88 51.88v17.54h42.28l14.95-16.62 14.96 16.62h230.04l14.95-16.62 14.96 16.62h42.28v-17.54c0-28.65-23.23-51.88-51.88-51.88z" fill="#b0ef9a"/></g><path d="m363.491 182.911-42.229-31.229h31.25c.17-1.18.26-2.39.26-3.62 0-13.39-10.25-24.39-23.34-25.57 1.62-3.37 2.52-7.14 2.52-11.12 0-13.034-9.705-23.791-22.275-25.458l2.588-3.633 8.816-.02 11.65-9.2 1.21-18.7 18.46 3.16 27.8-21.96-9.11-11.53c-14.88-18.84-42.22-22.05-61.06-7.17l-56.68 44.788-56.68-44.788c-18.84-14.88-46.18-11.67-61.06 7.17l-9.11 11.53 27.8 21.96 18.46-3.16 1.2 18.7 11.65 9.2h21.62c10.801.638 20.837 4.767 30.292 11.559-4.3 4.592-6.937 10.76-6.937 17.548 0 3.945.898 7.677 2.488 11.015-.052 0-.104-.004-.157-.004-14.186 0-25.686 11.5-25.686 25.686 0 1.228.092 2.434.258 3.616h-16.208l-42.23 31.23c-19.3 14.28-23.37 41.5-9.1 60.81l8.74 11.81 28.49-21.06 1.79-18.65 18.36 3.74 36.26-26.82 22.691-15.459 22.669 15.459 36.26 26.82 18.36-3.74 1.79 18.65 28.49 21.06 8.74-11.81c14.27-19.31 10.2-46.53-9.1-60.81z" fill="#9be27d"/><g><path d="m170.941 82.262c-28.65 0-51.88 23.23-51.88 51.88v8.96l-7.72 8.58h-42.28v-17.54c0-28.65 23.23-51.88 51.88-51.88z" fill="#9be27d"/></g><path d="m278.161 173.631 8.48 206-7.359 5h-45.75l-7.631-5 8.48-206.02 21.901-21.079z" fill="#e19974"/><path d="m258.602 148.062c0 8.52-4.15 16.07-10.53 20.74-4.2-5.85-6.67-13.01-6.67-20.74s2.47-14.89 6.66-20.74c6.389 4.67 10.54 12.22 10.54 20.74z" fill="#fedba6"/><path d="m258.582 146.971c-.76.05-1.53.08-2.31.08-1.64 0-3.26-.11-4.84-.33-12.98-1.77-23.76-10.53-28.4-22.36 3.04-1.28 6.38-1.98 9.88-1.98 13.82.001 25.09 10.911 25.67 24.59z" fill="#fece85"/><g fill="#fedba6"><path d="m258.602 148.062c0 8.52-4.15 16.07-10.53 20.74-4.2-5.85-6.67-13.01-6.67-20.74s2.47-14.89 6.66-20.74c6.389 4.67 10.54 12.22 10.54 20.74z"/><path d="m258.582 146.971c-.76.06-1.53.08-2.31.08-15.09 0-28.03-9.42-33.24-22.69 3.04-1.28 6.38-1.98 9.88-1.98 13.82.001 25.09 10.911 25.67 24.59z"/><path d="m289.092 125.362c-5.45 12.74-18.11 21.69-32.82 21.69-1.64 0-3.26-.11-4.84-.33.7-13.56 11.92-24.34 25.66-24.34 4.34 0 8.42 1.079 12 2.98z"/><path d="m289.092 125.362c-5.45 12.74-18.11 21.69-32.82 21.69-1.64 0-3.26-.11-4.84-.33.7-13.56 11.92-24.34 25.66-24.34 4.34 0 8.42 1.079 12 2.98z"/></g><path d="m289.092 125.362c-5.45 12.74-18.11 21.69-32.82 21.69-1.64 0-3.26-.11-4.84-.33.7-13.56 11.92-24.34 25.66-24.34 4.34 0 8.42 1.079 12 2.98z" fill="#fece85"/><path d="m279.292 201.062c-10.677.97-19.81-4.94-24.29-12.47-4.43 7.44-12.49 12.45-21.75 12.57l1.13-27.55 21.9-21.08 21.88 21.1z" fill="#dc8758"/><circle cx="232.916" cy="148.065" fill="#fedba6" r="25.686"/><circle cx="277.091" cy="148.065" fill="#fedba6" r="25.686"/><path d="m289.092 125.362c-3.58-1.9-7.66-2.98-12-2.98-9.393 0-38.514 0-44.18 0-3.5 0-6.84.7-9.88 1.98 3.409 8.691 10.139 15.712 18.614 19.535-.16 1.367-.244 2.756-.244 4.165 0 7.73 2.47 14.89 6.67 20.74 2.79-2.05 5.15-4.63 6.93-7.62 0-.01 0-.01 0-.01-2.29-3.84-3.6-8.32-3.6-13.11 0-.45.023-.894.046-1.339 1.575.219 3.19.329 4.824.329.78 0 1.55-.03 2.31-.08 0-.002 0-.005 0-.008 13.713-.882 25.347-9.535 30.51-21.602z" fill="#fece85"/><circle cx="256.271" cy="111.368" fill="#fedba6" r="25.686"/><path d="m411.355 430.578v-24.545c0-14.581-11.82-26.401-26.401-26.401h-257.366c-14.581 0-26.401 11.82-26.401 26.401v24.545l11.595 5h289.5z" fill="#b0ef9a"/><path d="m177.592 379.632c-14.58 0-26.4 11.82-26.4 26.4v24.55h-50v-24.55c0-14.58 11.82-26.4 26.4-26.4z" fill="#9be27d"/><path d="m425.012 430.578c7.344 0 13.298 5.954 13.298 13.298v20.683l-12.028 5h-339l-13.05-5v-20.683c0-7.344 5.954-13.298 13.298-13.298z" fill="#fedba6"/><path d="m137.532 430.582c-7.35 0-13.3 5.95-13.3 13.29v20.69h-50v-20.69c0-7.34 5.95-13.29 13.3-13.29z" fill="#fece85"/><path d="m7.782 464.559h497v40.502h-497z" fill="#8ac9fe"/><path d="m7.782 464.562h50v40.5h-50z" fill="#60b7ff"/></g><g><path d="m504.792 457.061h-58.98v-13.188c0-11.464-9.331-20.79-20.8-20.79h-6.157v-17.049c0-18.692-15.208-33.9-33.901-33.9h-91.114l-6.753-164.045 23.666 17.504c1.71 1.264 3.873 1.745 5.957 1.318l10.192-2.076.994 10.354c.203 2.118 1.297 4.05 3.008 5.314l28.49 21.06c1.341.991 2.903 1.469 4.452 1.469 2.297 0 4.563-1.051 6.034-3.038l8.744-11.814c16.701-22.602 11.914-54.585-10.674-71.298l-23.932-17.698h27.274c2.127 0 4.153-.903 5.576-2.484l9.375-10.423 9.386 10.426c1.422 1.579 3.447 2.481 5.573 2.481h42.28c4.143 0 7.5-3.357 7.5-7.5v-17.54c0-32.742-26.638-59.38-59.38-59.38h-8.38c-4.143 0-7.5 3.357-7.5 7.5s3.357 7.5 7.5 7.5h8.38c24.471 0 44.38 19.909 44.38 44.38v10.04h-31.442l-12.724-14.138c-1.423-1.58-3.449-2.482-5.576-2.482s-4.153.903-5.575 2.484l-12.716 14.136h-57.9c-1.428-12.396-9.601-22.771-21.094-27.112.323-1.854.5-3.758.5-5.703 0-5.577-1.389-10.834-3.83-15.452 6.78-3.994 14.572-6.153 22.525-6.153h42.38c4.143 0 7.5-3.357 7.5-7.5s-3.357-7.5-7.5-7.5h-10.507c.093-.398.164-.803.19-1.217l.672-10.387 10.248 1.755c2.097.359 4.246-.189 5.915-1.507l27.8-21.96c1.561-1.233 2.567-3.036 2.8-5.012.231-1.976-.331-3.963-1.564-5.523l-9.108-11.529c-8.438-10.684-20.533-17.442-34.057-19.03-13.523-1.585-26.855 2.185-37.539 10.624l-52.03 41.108-52.03-41.109c-22.059-17.422-54.176-13.648-71.594 8.406l-9.11 11.53c-1.233 1.561-1.796 3.548-1.564 5.523.232 1.976 1.239 3.778 2.801 5.012l27.801 21.96c1.668 1.317 3.818 1.868 5.914 1.507l10.243-1.754.667 10.382c.027.415.097.821.19 1.22h-45.726c-32.742 0-59.38 26.638-59.38 59.38v17.54c0 4.143 3.357 7.5 7.5 7.5h42.28c2.127 0 4.154-.903 5.576-2.484l9.375-10.423 9.384 10.425c1.422 1.58 3.448 2.482 5.574 2.482h27.275l-23.935 17.7c-22.586 16.711-27.373 48.695-10.668 71.302l8.74 11.81c1.471 1.987 3.737 3.039 6.034 3.038 1.549 0 3.111-.478 4.452-1.469l28.49-21.06c1.711-1.265 2.805-3.196 3.008-5.314l.994-10.354 10.192 2.076c2.084.426 4.248-.055 5.957-1.318l23.665-17.504-6.753 164.045h-91.114c-18.693 0-33.901 15.208-33.901 33.9v17.049h-6.155c-11.469 0-20.8 9.326-20.8 20.79v13.188h-58.961c-4.143 0-7.5 3.357-7.5 7.5s3.357 7.5 7.5 7.5h66.403c.02 0 .039.003.058.003h364.08c.02 0 .038-.003.058-.003h66.422c4.143 0 7.5-3.357 7.5-7.5s-3.357-7.501-7.5-7.501zm-290.061-308.989c0-8.698 6.141-15.98 14.312-17.763 3.773 5.408 9.112 9.642 15.357 12.043-.33 1.886-.499 3.804-.499 5.724 0 4.351.85 8.504 2.379 12.315-2.976 3.223-7.015 5.269-11.382 5.747-.07-.005-.138-.016-.208-.019-.579-.022-1.142.028-1.688.13-.027 0-.054.002-.081.002-10.03.001-18.19-8.155-18.19-18.179zm59.725-36.702c0 10.027-8.158 18.186-18.186 18.186-.065 0-.128-.009-.193-.01-.907-.258-1.834-.334-2.74-.249-8.634-1.41-15.252-8.9-15.252-17.927 0-10.027 8.158-18.186 18.186-18.186s18.185 8.158 18.185 18.186zm-32.835 68.707c4.958-1.348 9.546-3.823 13.388-7.25 4.416 3.944 9.889 6.722 15.936 7.859l3.993 97.013h-14.317c-4.143 0-7.5 3.357-7.5 7.5s3.357 7.5 7.5 7.5h14.934l3.27 79.435h-45.109l1.055-25.639h14.024c4.143 0 7.5-3.357 7.5-7.5s-3.357-7.5-7.5-7.5h-13.406l3.997-97.107h12.006c4.143 0 7.5-3.357 7.5-7.5s-3.357-7.5-7.5-7.5h-11.389zm117.409 8.865c15.941 11.795 19.318 34.37 7.533 50.319l-4.281 5.785-19.774-14.617-1.471-15.323c-.203-2.116-1.295-4.047-3.005-5.313-1.709-1.265-3.873-1.744-5.958-1.319l-15.087 3.073-30.693-22.702-.362-8.785c10.438-2.889 18.824-10.755 22.43-20.876h10.429zm-63.749-40.866c0 9.441-7.233 17.221-16.448 18.101-.322-.031-.648-.048-.981-.038-.338.014-.666.058-.99.114-9.923-.124-17.961-8.226-17.961-18.178 0-1.25.129-2.472.371-3.663 9.765-.88 18.321-6.005 23.806-13.514 7.227 2.479 12.203 9.264 12.203 17.178zm19.398-125.327c7.54-5.956 16.955-8.616 26.492-7.497 9.544 1.121 18.079 5.891 24.035 13.431l4.459 5.645-19.292 15.24-15.167-2.597c-2.095-.36-4.245.188-5.913 1.506-1.669 1.317-2.699 3.281-2.837 5.402l-.994 15.368-6.987 5.518h-10.323c-11.57 0-22.891 3.417-32.494 9.697-5.458-3.944-12.154-6.277-19.387-6.277-2.269 0-4.484.23-6.626.666 2.353-4.934 5.815-9.315 10.165-12.752zm-133.447 46.5-.986-15.366c-.136-2.122-1.167-4.087-2.835-5.405-1.67-1.317-3.819-1.867-5.915-1.507l-15.167 2.597-19.293-15.24 4.461-5.646c12.295-15.564 34.96-18.226 50.525-5.934l50.295 39.737c-4.557 5.696-7.871 12.331-9.652 19.46-8.626-4.668-18.357-7.181-28.274-7.181h-16.176zm-49.367 60.797c-1.423-1.58-3.449-2.482-5.575-2.482-2.127 0-4.153.903-5.575 2.484l-12.715 14.136h-31.439v-10.04c0-24.471 19.909-44.38 44.38-44.38h83.45c7.953 0 15.745 2.16 22.525 6.153-2.441 4.619-3.83 9.875-3.83 15.453 0 1.664.126 3.298.364 4.897-12.499 3.729-21.925 14.634-23.483 27.916h-55.377zm63.69 81.501-15.087-3.073c-2.083-.426-4.25.055-5.958 1.319-1.71 1.266-2.802 3.196-3.005 5.313l-1.471 15.323-19.774 14.617-4.277-5.78c-11.79-15.954-8.412-38.529 7.527-50.323l40.242-29.76h7.899c3.892 10.913 13.345 19.206 24.934 21.455l-.338 8.208zm-113.823 232.327c0-3.192 2.602-5.79 5.8-5.79h110.2c4.143 0 7.5-3.357 7.5-7.5 0-1.295-.328-2.513-.906-3.576-1.269-2.34-3.747-3.928-6.596-3.928h-89.043v-17.045c0-10.422 8.479-18.9 18.901-18.9h257.365c10.422 0 18.901 8.479 18.901 18.9v17.045h-169.916c-.026 0-.051.004-.077.004h-6.209c-4.143 0-7.5 3.357-7.5 7.5s3.357 7.5 7.5 7.5h197.36c3.198 0 5.8 2.598 5.8 5.79v13.188h-349.08z"/><path d="m504.792 497.563h-357.754c-4.143 0-7.5 3.357-7.5 7.5s3.357 7.5 7.5 7.5h357.754c4.143 0 7.5-3.357 7.5-7.5s-3.357-7.5-7.5-7.5z"/><path d="m114.352 497.563h-106.581c-4.143 0-7.5 3.357-7.5 7.5s3.357 7.5 7.5 7.5h106.581c4.143 0 7.5-3.357 7.5-7.5s-3.358-7.5-7.5-7.5z"/></g></g></svg>